<?xml version="1.0" encoding="utf-8"?>
<svg viewBox="21.815 30.905 481.248 481.248" xmlns="http://www.w3.org/2000/svg">
  <path d="M 499.056 271.529 A 236.617 236.617 0 0 1 262.439 508.146 A 236.617 236.617 0 0 1 25.822 271.529 A 236.617 236.617 0 0 1 262.439 34.912 A 236.617 236.617 0 0 1 499.056 271.529 Z" style="stroke-width: 8.01411px; fill: color(srgb-linear 1 1 1);"/>
  <path d="M 503.063 271.529 C 503.063 337.688 475.91 398.352 432.586 441.676 C 389.262 485 328.598 512.153 262.439 512.153 C 196.28 512.153 135.616 485 92.292 441.676 C 48.968 398.352 21.815 337.688 21.815 271.529 C 21.815 205.37 48.968 144.706 92.292 101.382 C 135.616 58.058 196.28 30.905 262.439 30.905 C 328.598 30.905 389.262 58.058 432.586 101.382 C 475.91 144.706 503.063 205.37 503.063 271.529 Z M 426.919 107.049 C 384.605 64.735 326.96 38.919 262.439 38.919 C 197.918 38.919 140.273 64.735 97.959 107.049 C 55.645 149.363 29.829 207.008 29.829 271.529 C 29.829 336.05 55.645 393.695 97.959 436.009 C 140.273 478.323 197.918 504.139 262.439 504.139 C 326.96 504.139 384.605 478.323 426.919 436.009 C 469.233 393.695 495.049 336.05 495.049 271.529 C 495.049 207.008 469.233 149.363 426.919 107.049 Z" style=""/>
  <path d="M 465.614 271.237 A 202.787 202.787 0 0 1 262.827 474.024 A 202.787 202.787 0 0 1 60.04 271.237 A 202.787 202.787 0 0 1 262.827 68.45 A 202.787 202.787 0 0 1 465.614 271.237 Z" style="fill: color(srgb-linear 1 0.74 0.038); stroke-width: 8.01411px;"/>
  <path d="M 469.621 271.237 C 469.621 328.054 446.255 380.26 409.052 417.462 C 371.85 454.665 319.644 478.031 262.827 478.031 C 206.01 478.031 153.804 454.665 116.602 417.462 C 79.399 380.26 56.033 328.054 56.033 271.237 C 56.033 214.42 79.399 162.214 116.602 125.012 C 153.804 87.809 206.01 64.443 262.827 64.443 C 319.644 64.443 371.85 87.809 409.052 125.012 C 446.255 162.214 469.621 214.42 469.621 271.237 Z M 403.386 130.678 C 367.193 94.486 318.006 72.457 262.827 72.457 C 207.648 72.457 158.461 94.486 122.268 130.678 C 86.076 166.871 64.047 216.058 64.047 271.237 C 64.047 326.416 86.076 375.603 122.268 411.796 C 158.461 447.988 207.648 470.017 262.827 470.017 C 318.006 470.017 367.193 447.988 403.386 411.796 C 439.578 375.603 461.607 326.416 461.607 271.237 C 461.607 216.058 439.578 166.871 403.386 130.678 Z" style="fill: none;"/>
  <path d="M 260.688 292.235 A 53.078 46.079 0 0 1 207.61 338.314 A 53.078 46.079 0 0 1 154.532 292.235 A 53.078 46.079 0 0 1 207.61 246.156 A 53.078 46.079 0 0 1 260.688 292.235 Z" style="fill: rgb(255, 255, 255); stroke-width: 8.01411px;"/>
  <path d="M 264.695 292.235 C 264.695 305.878 257.935 319.018 247.769 327.844 C 237.653 336.626 222.993 342.321 207.61 342.321 C 192.227 342.321 177.567 336.626 167.451 327.844 C 157.285 319.018 150.525 305.878 150.525 292.235 C 150.525 278.592 157.285 265.452 167.451 256.626 C 177.567 247.844 192.227 242.149 207.61 242.149 C 222.993 242.149 237.653 247.844 247.769 256.626 C 257.935 265.452 264.695 278.592 264.695 292.235 Z M 242.515 262.678 C 233.42 254.783 221.541 250.163 207.61 250.163 C 193.679 250.163 181.8 254.783 172.705 262.678 C 163.661 270.53 158.539 280.429 158.539 292.235 C 158.539 304.041 163.661 313.94 172.705 321.792 C 181.8 329.687 193.679 334.307 207.61 334.307 C 221.541 334.307 233.42 329.687 242.515 321.792 C 251.559 313.94 256.681 304.041 256.681 292.235 C 256.681 280.429 251.559 270.53 242.515 262.678 Z" style="fill: none;"/>
  <path d="M 386.288 293.207 A 52.3 41.996 0 0 1 333.988 335.203 A 52.3 41.996 0 0 1 281.688 293.207 A 52.3 41.996 0 0 1 333.988 251.211 A 52.3 41.996 0 0 1 386.288 293.207 Z" style="fill: rgb(255, 255, 255); stroke-width: 8.01411px;"/>
  <path d="M 390.295 293.207 C 390.295 305.78 383.531 317.955 373.479 326.027 C 363.506 334.035 349.108 339.21 333.988 339.21 C 318.868 339.21 304.47 334.035 294.497 326.027 C 284.445 317.955 277.681 305.78 277.681 293.207 C 277.681 280.634 284.445 268.459 294.497 260.387 C 304.47 252.379 318.868 247.204 333.988 247.204 C 349.108 247.204 363.506 252.379 373.479 260.387 C 383.531 268.459 390.295 280.634 390.295 293.207 Z M 368.461 266.636 C 359.505 259.444 347.752 255.218 333.988 255.218 C 320.224 255.218 308.471 259.444 299.515 266.636 C 290.638 273.764 285.695 282.586 285.695 293.207 C 285.695 303.828 290.638 312.65 299.515 319.778 C 308.471 326.97 320.224 331.196 333.988 331.196 C 347.752 331.196 359.505 326.97 368.461 319.778 C 377.338 312.65 382.281 303.828 382.281 293.207 C 382.281 282.586 377.338 273.764 368.461 266.636 Z" style="fill: none;"/>
  <g transform="matrix(0.08734600245952606, 0, 0, -0.08734600245952606, 30.876199722290036, 507.9835205078125)" fill="#000000" stroke="none">
    <path d="M770 4422 c0 -7 228 -674 375 -1097 l76 -220 -31 -102 c-17 -57 -44&#10;-163 -59 -238 -15 -74 -30 -138 -33 -141 -4 -3 -161 26 -350 65 -188 38 -361&#10;73 -383 76 -39 5 -39 5 -10 -7 17 -6 188 -60 380 -119 l350 -107 -3 -48 c-1&#10;-26 -4 -49 -6 -51 -1 -2 -153 -12 -337 -23 -535 -31 -684 -41 -688 -46 -2 -2&#10;40 -4 95 -4 54 0 185 -4 289 -10 105 -5 290 -12 413 -16 l222 -7 0 -32 0 -31&#10;-306 -95 c-169 -52 -300 -95 -293 -96 8 -2 145 21 304 50 l290 53 6 -57 c9&#10;-84 45 -138 198 -289 132 -131 309 -275 439 -355 l64 -39 -7 -55 c-14 -118&#10;-56 -417 -60 -429 -3 -9 -19 4 -43 35 -133 167 -342 280 -501 271 -86 -5 -132&#10;-36 -168 -115 -47 -102 -13 -218 76 -259 33 -16 41 -26 50 -61 21 -82 110&#10;-152 194 -153 30 0 44 -6 63 -29 56 -67 181 -94 266 -58 36 15 38 15 125 -23&#10;300 -129 626 -188 968 -177 331 11 614 80 910 222 160 76 154 68 94 144 -62&#10;80 -108 162 -149 266 -32 80 -83 269 -95 350 l-7 43 54 17 c173 57 425 215&#10;582 365 74 71 100 112 111 178 4 23 10 42 13 42 4 0 138 -9 297 -19 160 -11&#10;342 -22 405 -25 l115 -5 -75 14 c-41 7 -210 34 -375 59 -165 25 -315 48 -333&#10;51 -32 6 -32 7 -26 48 4 23 7 43 8 44 1 1 141 16 311 33 171 17 384 40 475 50&#10;l165 18 -477 1 -478 1 0 34 c0 35 0 35 83 60 211 66 450 145 437 146 -9 0&#10;-120 -16 -249 -35 -128 -19 -241 -35 -251 -35 -15 0 -19 12 -24 78 -12 135&#10;-27 244 -47 340 l-20 92 232 443 c127 243 253 484 280 535 27 51 49 94 49 96&#10;0 4 -247 -86 -793 -289 l-318 -119 -172 42 c-355 86 -529 107 -887 106 -230&#10;-1 -310 -5 -415 -21 l-130 -20 -629 348 c-345 192 -630 349 -632 349 -2 0 -4&#10;-3 -4 -8z m1019 -1637 c58 -31 116 -63 128 -73 l21 -17 -30 -90 c-44 -131 -42&#10;-260 7 -379 8 -17 7 -17 -26 -1 -160 81 -250 230 -251 415 -1 90 20 200 38&#10;200 3 0 54 -25 113 -55z m1941 23 c19 -51 25 -217 10 -279 -28 -119 -116 -236&#10;-221 -294 -41 -22 -51 -24 -46 -11 55 142 49 284 -18 458 -5 12 5 24 37 44 49&#10;31 208 114 219 114 4 0 12 -15 19 -32z m-1412 -412 c56 -54 102 -103 102 -108&#10;0 -26 -286 -125 -306 -106 -2 3 6 42 17 88 21 84 23 202 3 270 -7 24 -6 23 37&#10;-10 24 -19 90 -79 147 -134z m931 110 c-15 -60 -6 -205 16 -269 10 -26 15 -51&#10;12 -54 -22 -21 -307 78 -307 107 0 21 277 277 288 266 1 -2 -2 -25 -9 -50z" style="stroke-width: 80.1411px;"/>
    <path d="M4491 1699 c-54 -11 -155 -57 -218 -101 -111 -76 -228 -231 -264&#10;-350 -24 -77 -22 -102 16 -193 30 -72 32 -138 6 -188 -10 -20 -17 -37 -14 -37&#10;3 0 40 29 82 64 59 49 88 65 122 71 64 11 114 39 139 80 17 28 28 35 53 35 93&#10;1 197 104 197 197 0 6 15 21 34 32 44 28 83 85 96 144 35 158 -88 279 -249&#10;246z" style="stroke-width: 80.1411px;"/>
  </g>
</svg>